<svg xmlns="http://www.w3.org/2000/svg" width="24" height="24" viewBox="0 0 24 24">
    <path fill="#414745" fill-rule="nonzero" d="M23 12.262V20h-4.501v-7.22c0-1.813-.651-3.051-2.28-3.051-1.244 0-1.984.834-2.31 1.64-.118.29-.149.69-.149 1.095V20H9.258s.06-12.228 0-13.495h4.502v1.913l-.03.044h.03v-.044c.598-.918 1.666-2.23 4.057-2.23 2.962 0 5.183 1.929 5.183 6.074zM4.548 0C3.008 0 2 1.007 2 2.331c0 1.295.978 2.333 2.488 2.333h.03c1.57 0 2.547-1.037 2.547-2.333C7.035 1.007 6.088 0 4.548 0zm-2.28 20h4.5V6.505h-4.5V20z"/>
</svg>
