<svg xmlns="http://www.w3.org/2000/svg" width="32" height="32" viewBox="0 0 32 32">
    <g fill="none" fill-rule="evenodd">
        <path fill="#414745" d="M0 0h32v32H0z"/>
        <g fill="#FFF" fill-rule="nonzero" transform="translate(4 4)">
            <path d="M12 2.162c3.204 0 3.584.012 4.849.07 1.17.054 1.805.249 2.228.413.521.193.993.5 1.38.898.399.387.705.859.898 1.38.164.423.36 1.058.413 2.228.058 1.265.07 1.645.07 4.85 0 3.203-.012 3.583-.07 4.848-.054 1.17-.249 1.806-.413 2.229a3.974 3.974 0 0 1-2.278 2.277c-.423.164-1.058.36-2.228.413-1.265.058-1.645.07-4.85.07-3.204 0-3.583-.012-4.848-.07-1.17-.053-1.805-.249-2.228-.413a3.718 3.718 0 0 1-1.38-.898 3.718 3.718 0 0 1-.898-1.38c-.164-.422-.36-1.058-.413-2.228-.058-1.265-.07-1.645-.07-4.849s.012-3.583.07-4.849c.053-1.17.249-1.805.413-2.228.193-.521.5-.993.898-1.38a3.718 3.718 0 0 1 1.38-.898c.423-.164 1.058-.36 2.228-.413 1.265-.058 1.645-.07 4.849-.07zM12 0C8.741 0 8.332.014 7.053.072 5.775.131 4.903.333 4.14.63c-.801.301-1.526.774-2.126 1.384A5.882 5.882 0 0 0 .63 4.14c-.297.763-.5 1.635-.558 2.912C.014 8.332 0 8.741 0 12c0 3.26.014 3.668.072 4.948.059 1.277.262 2.15.558 2.912.302.801.774 1.526 1.384 2.126.6.61 1.325 1.083 2.126 1.384.763.297 1.635.5 2.913.558C8.333 23.986 8.74 24 12 24c3.26 0 3.668-.014 4.948-.072 1.277-.059 2.15-.261 2.912-.558a6.136 6.136 0 0 0 3.51-3.51c.297-.763.5-1.635.558-2.912.058-1.28.072-1.689.072-4.948 0-3.259-.014-3.668-.072-4.948-.059-1.277-.261-2.15-.558-2.912a5.882 5.882 0 0 0-1.384-2.126A5.882 5.882 0 0 0 19.86.63c-.763-.297-1.635-.5-2.913-.558C15.667.014 15.26 0 12 0z"/>
            <path d="M12.444 6.222a6.222 6.222 0 1 0 0 12.445 6.222 6.222 0 0 0 0-12.445zm0 10.261a4.039 4.039 0 1 1 0-8.078 4.039 4.039 0 0 1 0 8.078z"/>
            <circle cx="18.222" cy="4.889" r="1.333"/>
        </g>
    </g>
</svg>
