<svg xmlns="http://www.w3.org/2000/svg" width="32" height="32" viewBox="0 0 32 32">
    <g fill="none" fill-rule="evenodd">
        <path fill="#414745" d="M0 0h32v32H0z"/>
        <path fill="#FFF" fill-rule="nonzero" d="M27 18.303v7.764h-4.501v-7.244c0-1.82-.651-3.062-2.28-3.062-1.244 0-1.984.837-2.31 1.647-.118.29-.149.692-.149 1.097v7.562h-4.502s.06-12.269 0-13.54h4.502v1.92l-.03.043h.03v-.044c.598-.921 1.666-2.237 4.057-2.237 2.962 0 5.183 1.935 5.183 6.094zM8.548 6C7.008 6 6 7.01 6 8.339c0 1.3.978 2.34 2.488 2.34h.03c1.57 0 2.547-1.04 2.547-2.34C11.035 7.01 10.088 6 8.548 6zm-2.28 20.067h4.5v-13.54h-4.5v13.54z"/>
    </g>
</svg>
