<svg xmlns="http://www.w3.org/2000/svg" width="24" height="24" viewBox="0 0 24 24">
    <g fill="#414745" fill-rule="nonzero">
        <path d="M9.327 2.276L4.31 7.05A1 1 0 0 0 4 7.775V21.5a.5.5 0 0 0 .5.5h5.46a.707.707 0 0 0 0-1.414H5.414V8.263h4.65a.4.4 0 0 0 .4-.4V3.414h7.273v9.192a.707.707 0 0 0 1.414 0V2.5a.5.5 0 0 0-.5-.5h-8.635a1 1 0 0 0-.69.276zM6.583 6.848l2.468-2.535v2.535H6.583z"/>
        <path d="M16.073 15.333h-.914a.25.25 0 0 0-.25.25v1.973h-1.972a.25.25 0 0 0-.25.25v.914c0 .138.112.25.25.25h1.972v1.972c0 .138.112.25.25.25h.914a.25.25 0 0 0 .25-.25V18.97h1.972a.25.25 0 0 0 .25-.25v-.914a.25.25 0 0 0-.25-.25h-1.972v-1.973a.25.25 0 0 0-.25-.25z"/>
    </g>
</svg>
