<svg xmlns="http://www.w3.org/2000/svg" width="40" height="40" viewBox="0 0 40 40">
    <path fill="#414745" fill-rule="nonzero" d="M33.125 12.242h-17.5a.862.862 0 0 1-.875-.848c0-.468.392-.849.875-.849h17.5c.483 0 .875.38.875.849a.862.862 0 0 1-.875.848zM34 19.88a.862.862 0 0 0-.875-.849h-17.5a.862.862 0 0 0-.875.849c0 .468.392.848.875.848h17.5c.483 0 .875-.38.875-.848zm0 8.485a.862.862 0 0 0-.875-.849h-17.5a.862.862 0 0 0-.875.849c0 .468.392.848.875.848h17.5c.483 0 .875-.38.875-.848zM9.308 14.045l3.5-4.242a.832.832 0 0 0-.136-1.193.893.893 0 0 0-1.23.132l-2.97 3.6-1.072-.778a.894.894 0 0 0-1.225.169.832.832 0 0 0 .175 1.188l1.75 1.273c.157.114.342.17.525.17a.884.884 0 0 0 .683-.319zm0 8.485l3.5-4.242a.832.832 0 0 0-.136-1.193.893.893 0 0 0-1.23.132l-2.97 3.6-1.072-.779a.895.895 0 0 0-1.225.17.832.832 0 0 0 .175 1.188l1.75 1.272c.157.115.342.17.525.17a.883.883 0 0 0 .683-.318zm0 8.485l3.5-4.243a.831.831 0 0 0-.136-1.192.893.893 0 0 0-1.23.133l-2.97 3.6-1.072-.78a.894.894 0 0 0-1.225.17.832.832 0 0 0 .175 1.187l1.75 1.273c.157.115.342.17.525.17a.883.883 0 0 0 .683-.318z"/>
</svg>
