<svg xmlns="http://www.w3.org/2000/svg" width="40" height="40" viewBox="0 0 40 40">
    <path fill="#414745" fill-rule="nonzero" d="M7.882 31.069h.174l4.53-.875c.086 0 .13-.044.217-.088 0 0 .044 0 .044-.044.087-.043.13-.087.174-.13l18.682-18.77a.849.849 0 0 0 0-1.225l-3.658-3.674c-.348-.35-.915-.35-1.22 0L8.144 25.03c-.043.044-.087.132-.13.175 0 0 0 .044-.044.044-.043.087-.043.131-.087.219l-.87 4.55a.997.997 0 0 0 .217.787c.218.175.435.263.653.263zm1.437-3.631l1.35 1.356-1.655.306.305-1.663zM27.435 8.1l2.439 2.45-17.42 17.544-2.438-2.45L27.436 8.1zm6.228 25.025a.876.876 0 0 1-.871.875H7.882a.876.876 0 0 1 0-1.75h24.866c.523 0 .915.394.915.875z"/>
</svg>
