<svg xmlns="http://www.w3.org/2000/svg" width="24" height="24" viewBox="0 0 24 24">
    <g fill="#A0A3A2" fill-rule="nonzero">
        <path d="M17.455 3.818V2h-1.819v1.818H8.364V2H6.545v1.818H2V22h20V3.818h-4.545zm2.727 16.364H3.818V11.09h16.364v9.09zM3.818 9.272V5.637h2.727v1.819h1.819V5.636h7.272v1.819h1.819V5.636h2.727v3.637H3.818z"/>
        <path d="M5.636 12.909h1.818v1.818H5.636zM9.273 12.909h1.818v1.818H9.273zM12.909 12.909h1.818v1.818h-1.818zM16.545 12.909h1.818v1.818h-1.818zM5.636 16.545h1.818v1.818H5.636zM9.273 16.545h1.818v1.818H9.273zM12.909 16.545h1.818v1.818h-1.818zM16.545 16.545h1.818v1.818h-1.818z"/>
    </g>
</svg>
