<svg xmlns="http://www.w3.org/2000/svg" width="44" height="44" viewBox="0 0 44 44">
    <g fill="none" fill-rule="evenodd">
        <path fill="#414745" d="M31.928 28.784c0-7.392-4.2-13.048-12.04-13.048-3.472 0-5.936.84-7.728 2.52l.448-8.904h17.584V3.08H6.56l-.84 21.952h6.888c1.232-1.96 3.528-3.136 5.824-3.136 4.48 0 6.384 2.968 6.384 7.056 0 4.2-1.68 7.616-6.384 7.616-3.696 0-6.384-2.072-6.552-5.936h-7c.392 7.336 5.768 12.152 13.496 12.152 8.68 0 13.552-5.768 13.552-14z"/>
        <circle cx="40" cy="38" r="4" fill="#FFD731"/>
    </g>
</svg>
