<svg xmlns="http://www.w3.org/2000/svg" width="48" height="48" viewBox="0 0 48 48">
    <path fill="#FFD731" fill-rule="nonzero" d="M41.621 39.358l-8.95-8.95c4.664-5.796 4.31-14.323-1.069-19.702A14.681 14.681 0 0 0 21.154 6.38a14.678 14.678 0 0 0-10.447 4.327A14.676 14.676 0 0 0 6.38 21.154c0 3.946 1.537 7.657 4.328 10.447 2.791 2.791 6.501 4.328 10.447 4.328 3.408 0 6.638-1.149 9.255-3.259l8.95 8.95 2.262-2.262zM21.154 32.73a11.498 11.498 0 0 1-8.184-3.39 11.497 11.497 0 0 1-3.391-8.185c0-3.092 1.204-5.999 3.39-8.185a11.498 11.498 0 0 1 8.185-3.39c3.092 0 6 1.203 8.186 3.39 4.512 4.513 4.512 11.857 0 16.37a11.5 11.5 0 0 1-8.186 3.39z"/>
</svg>
