<svg xmlns="http://www.w3.org/2000/svg" width="215" height="40" viewBox="0 0 215 40">
    <g fill="none" fill-rule="evenodd">
        <path fill="#FFF" d="M17.687 36.053c1.783 0 3.43-.364 4.939-1.097 1.51-.734 2.811-1.782 3.91-3.144 1.096-1.365 1.956-3.009 2.571-4.934.618-1.925.926-4.082.926-6.469 0-2.383-.308-4.548-.926-6.49-.615-1.943-1.475-3.597-2.572-4.961-1.098-1.361-2.4-2.411-3.91-3.144-1.507-.732-3.155-1.098-4.938-1.098-1.784 0-3.429.366-4.938 1.098-1.51.733-2.82 1.783-3.935 3.144-1.114 1.364-1.98 3.018-2.598 4.96-.617 1.943-.926 4.108-.926 6.491 0 2.387.309 4.544.926 6.47.617 1.924 1.484 3.568 2.598 4.933 1.115 1.362 2.425 2.41 3.935 3.144 1.51.733 3.154 1.097 4.938 1.097zm0 3.887c-3.361 0-6.155-.623-8.385-1.866-2.23-1.243-4.02-2.821-5.375-4.729a18.396 18.396 0 0 1-2.881-6.313C.48 24.729.197 22.525.197 20.409c0-2.147.283-4.369.849-6.671a18.424 18.424 0 0 1 2.88-6.314c1.356-1.907 3.147-3.483 5.376-4.729C11.532 1.452 14.326.83 17.687.83c2.23 0 4.2.29 5.916.87 1.715.58 3.223 1.356 4.527 2.325 1.302.973 2.4 2.106 3.292 3.4a19.378 19.378 0 0 1 2.16 4.116c.549 1.45.943 2.931 1.184 4.449.24 1.516.36 2.99.36 4.42 0 1.434-.12 2.899-.36 4.397a22.559 22.559 0 0 1-1.183 4.424 19.302 19.302 0 0 1-2.16 4.115 14.512 14.512 0 0 1-3.293 3.4c-1.304.97-2.812 1.748-4.527 2.326-1.715.579-3.686.87-5.916.87zM42.995 35.849v-19.58h-3.498a4.197 4.197 0 0 1-.309-1.585c0-.545.103-1.074.309-1.584H46.7v3.833c.238-.44.582-.936 1.027-1.48A7.475 7.475 0 0 1 49.4 13.97c.669-.443 1.466-.82 2.394-1.125.924-.309 1.987-.46 3.188-.46 2.744 0 4.853.775 6.329 2.326 1.474 1.551 2.211 3.842 2.211 6.876v14.262h3.497a4.223 4.223 0 0 1 0 3.171H56.112a4.217 4.217 0 0 1 0-3.171h3.035V23.068c0-1.055-.069-2.018-.205-2.887-.137-.87-.404-1.593-.798-2.174-.394-.579-.934-1.03-1.62-1.353-.687-.323-1.561-.486-2.624-.486-.789 0-1.567.145-2.34.433-.77.29-1.466.768-2.084 1.433-.617.664-1.123 1.558-1.517 2.684-.394 1.125-.59 2.522-.59 4.192v10.939h3.033a4.221 4.221 0 0 1 0 3.171H39.497a4.217 4.217 0 0 1 0-3.171h3.498M86.926 24.143c0-.851-.095-1.756-.283-2.71a8.397 8.397 0 0 0-1.003-2.658 5.884 5.884 0 0 0-1.98-2.02c-.842-.528-1.912-.792-3.214-.792-1.201 0-2.222.29-3.061.87a7.012 7.012 0 0 0-2.032 2.121 9.045 9.045 0 0 0-1.108 2.657c-.221.94-.334 1.781-.334 2.532h13.015zm3.343 13.343c-.892.512-2.065 1.015-3.522 1.509a13.943 13.943 0 0 1-4.502.74c-2.298 0-4.269-.383-5.916-1.151-1.645-.765-2.992-1.788-4.037-3.067a12.241 12.241 0 0 1-2.289-4.37c-.48-1.638-.72-3.34-.72-5.112 0-1.774.222-3.485.669-5.138.445-1.654 1.122-3.11 2.03-4.371.91-1.26 2.075-2.266 3.498-3.017 1.424-.749 3.114-1.124 5.067-1.124 2.091 0 3.832.391 5.221 1.176a9.658 9.658 0 0 1 3.37 3.116c.856 1.298 1.466 2.78 1.827 4.448.359 1.671.54 3.376.54 5.114v1.072H73.912c.035 1.093.241 2.147.617 3.171a8.93 8.93 0 0 0 1.595 2.736 7.837 7.837 0 0 0 2.546 1.942c1.011.494 2.188.74 3.526.74 1.885 0 3.453-.288 4.705-.868a26.76 26.76 0 0 0 3.37-1.842v4.296zM114.241 19.131c2.263 0 4.056-.536 5.376-1.608 1.32-1.074 1.98-2.82 1.98-5.242 0-2.282-.643-3.96-1.929-5.034-1.286-1.074-3.027-1.612-5.221-1.612h-8.795V19.13h8.589zM101.072 35.44V5.33h-3.858a5.654 5.654 0 0 1-.309-1.79c0-.58.105-1.177.309-1.789h18.673c1.715 0 3.231.272 4.553.816 1.32.547 2.433 1.298 3.343 2.25a9.485 9.485 0 0 1 2.058 3.35c.463 1.278.694 2.633.694 4.064 0 1.227-.188 2.48-.565 3.758a9.965 9.965 0 0 1-1.827 3.475c-.84 1.041-1.938 1.893-3.29 2.557-1.357.665-3.01.997-4.966.997h-10.235V35.44h4.422c.206.613.309 1.21.309 1.79a5.61 5.61 0 0 1-.309 1.79h-12.86a5.654 5.654 0 0 1-.309-1.79c0-.58.105-1.177.309-1.79h3.858zM133.583 35.849v-19.58h-3.498a4.197 4.197 0 0 1-.309-1.585c0-.545.103-1.074.309-1.584h7.87V35.85h3.498a4.221 4.221 0 0 1 0 3.171h-11.368a4.217 4.217 0 0 1 0-3.171h3.498"/>
        <path fill="#FFD731" d="M135.023 7.835c-.789 0-1.466-.297-2.032-.895-.566-.596-.848-1.337-.848-2.224 0-.887.282-1.628.848-2.225.566-.596 1.243-.893 2.032-.893.788 0 1.466.297 2.032.893.566.597.849 1.338.849 2.225s-.283 1.628-.849 2.224c-.566.598-1.244.895-2.032.895"/>
        <path fill="#FFF" d="M147.678 16.268h-3.963a4.195 4.195 0 0 1-.307-1.584c0-.545.101-1.074.307-1.584h3.963V6.146l4.424-2.35V13.1h6.173c.205.51.307 1.039.307 1.584 0 .546-.102 1.075-.307 1.584h-6.173v16.004c0 2.385 1.06 3.577 3.188 3.577.927 0 1.699-.1 2.316-.305.617-.205 1.08-.392 1.389-.564v3.478c-.55.34-1.244.578-2.085.714a14.19 14.19 0 0 1-2.236.204c-2.334 0-4.082-.637-5.247-1.915-1.167-1.28-1.75-3.077-1.75-5.394V16.268M182.812 36.769c-.38.273-.842.582-1.39.922-.55.342-1.191.664-1.93.971a14.696 14.696 0 0 1-5.632 1.074c-1.955 0-3.686-.342-5.194-1.024-1.511-.68-2.78-1.617-3.807-2.812-1.03-1.192-1.81-2.572-2.342-4.14-.532-1.568-.797-3.254-.797-5.06 0-1.943.231-3.768.694-5.47.463-1.704 1.175-3.196 2.135-4.474a10.46 10.46 0 0 1 3.627-3.042c1.458-.75 3.165-1.125 5.12-1.125 1.543 0 2.88.307 4.012.92 1.132.614 1.937 1.347 2.418 2.199v-2.454a4.542 4.542 0 0 1 1.594-.309c.582 0 1.13.104 1.645.309v10.53a5.674 5.674 0 0 1-1.8.308 5.681 5.681 0 0 1-1.8-.308v-1.38c0-1.942-.514-3.468-1.544-4.575-1.029-1.107-2.452-1.661-4.268-1.661-1.476 0-2.685.315-3.628.946a6.91 6.91 0 0 0-2.238 2.426c-.548.99-.926 2.09-1.132 3.3a21.48 21.48 0 0 0-.307 3.604c0 1.567.206 2.938.617 4.115.41 1.176.976 2.155 1.696 2.94a6.863 6.863 0 0 0 2.572 1.763 8.631 8.631 0 0 0 3.19.587 9.97 9.97 0 0 0 2.985-.433c.924-.29 1.749-.631 2.47-1.024.718-.39 1.335-.783 1.85-1.174.514-.392.91-.708 1.184-.946v4.497M190.064 35.849V3.436h-3.498a4.225 4.225 0 0 1 0-3.168h7.872v16.104c.65-1.16 1.62-2.112 2.906-2.863 1.285-.749 2.855-1.124 4.706-1.124 2.744 0 4.862.775 6.353 2.326 1.491 1.551 2.239 3.842 2.239 6.876v14.262h3.447a4.249 4.249 0 0 1 0 3.171H203.18a4.216 4.216 0 0 1-.307-1.586c0-.544.102-1.072.307-1.585h3.037V23.068c0-1.055-.07-2.018-.206-2.887-.138-.87-.405-1.593-.797-2.174-.396-.579-.936-1.03-1.622-1.353-.687-.323-1.56-.486-2.624-.486-.789 0-1.567.145-2.34.433-.77.29-1.466.768-2.084 1.433-.615.664-1.123 1.558-1.515 2.684-.396 1.125-.592 2.522-.592 4.192v10.939h3.035a4.221 4.221 0 0 1 0 3.171h-10.907a4.247 4.247 0 0 1 0-3.171h3.498"/>
    </g>
</svg>
